# xmcd
#
# Track frame offsets: 
#        183
#        16745
#        31295
#        45783
#        57408
#        80358
#        96845
#        120033
#        146583
#        167283
#        180933
#        194733
#
# Disc length: 2876 seconds
#
# Revision: 4
# Processed by: cddbd v1.5.2PL0 Copyright (c) Steve Scherf et al.
# Submitted via: ExactAudioCopy v0.99pb5
#
DISCID=840b3a0c
DTITLE=Roland Kirk - "Rahsaan" The Complete Mercury Recordings Disc 3
DYEAR=1990
DGENRE=Jazz
TTITLE0=Meeting on Termini's corner
TTITLE1=Domino
TTITLE2=Time
TTITLE3=3-in-1 without the oil
TTITLE4=A stritch in time
TTITLE5=Lament
TTITLE6=A breath in the wind
TTITLE7=Land of peace
TTITLE8=Lonesome august child
TTITLE9=Limbo boat
TTITLE10=Hay Ro
TTITLE11=Waltz of the friends
EXTD=1-6 Roland Kirk Quartet:\n      R. Kirk (tenor sax, manzello, str
EXTD=itch, flute), Andrew Hill (piano, celeste), Vernon Martin (bass),
EXTD=Henry Duncan (drums). Chicago 9/6/1962\n7 Eddie Baccus Quartet:\n
EXTD=R. Kirk (flute), E. Baccus (organ), M. Fowler (g),G. Cook or C
EXTD=Crosby (drums). Chicago,10/1962\n8-12 Roland Kirk All Stars: V.
EXTD=Jones (trumpet), C. Greenlea (trombone), R. Kirk (tenor sax, Str
EXTD=itch, manzello,flute, siren), H. Mabern (piano), A. Rafik (bass),
EXTD=W. Perkins (drums). N.Y. 2/25/1963
EXTT0=
EXTT1=
EXTT2=
EXTT3=
EXTT4=
EXTT5=
EXTT6=
EXTT7=
EXTT8=
EXTT9=
EXTT10=
EXTT11=
PLAYORDER=
